<svg xmlns="http://www.w3.org/2000/svg" xml:space="preserve" width="192" height="192" data-version="2">
    <path fill="#f5f5f5" d="M96.08 100.02H35.86q-3.95 0-7.23-1.97-3.27-1.98-5.25-5.26-1.97-3.27-1.97-7.22V39.6q0-3.95 1.97-7.23 1.98-3.28 5.25-5.25 3.28-1.98 7.23-1.98h60.22v13.83H38.77q-1.66 0-2.65.94t-.99 2.7v39.94q0 1.66.99 2.65t2.65.99h57.31z" paint-order="stroke"/>
    <rect width="74.67" height="74.88" x="-37.335" y="-37.44" fill="none" rx="0" ry="0" transform="translate(59.245 63.08)"/>
    <path fill="#f5f5f5" d="M156.5 100.02h-45.97q-3.95 0-7.22-1.97-3.28-1.98-5.26-5.26-1.97-3.27-1.97-7.22v-5.72h13.73v5.09q0 .52.36.89.36.36.88.36h44.83q.52 0 .88-.36.37-.37.37-.89V70.69q0-.52-.37-.83-.36-.31-.88-.31h-45.35q-3.95 0-7.22-1.98-3.28-1.97-5.26-5.25-1.97-3.27-1.97-7.33V39.6q0-3.95 1.97-7.23 1.98-3.28 5.26-5.25 3.27-1.98 7.22-1.98h45.97q3.95 0 7.23 1.98 3.28 1.97 5.25 5.25 1.98 3.28 1.98 7.23v5.72h-13.83v-5.1q0-.52-.37-.88-.36-.37-.88-.37h-44.83q-.52 0-.88.37-.36.36-.36.88v14.25q0 .52.36.83.36.31.88.31h45.45q3.95 0 7.23 1.98 3.28 1.98 5.25 5.25 1.98 3.28 1.98 7.33v15.4q0 3.95-1.98 7.22-1.97 3.28-5.25 5.26-3.28 1.97-7.23 1.97" paint-order="stroke"/>
    <rect width="74.88" height="74.88" x="-37.44" y="-37.44" fill="none" rx="0" ry="0" transform="translate(134.02 63.08)"/>
</svg>
