<svg xmlns="http://www.w3.org/2000/svg" xml:space="preserve" width="16" height="16" data-version="2">
    <path d="M8.01 9.49H2.8q-.35 0-.63-.17t-.45-.45q-.18-.29-.18-.63V4.26q0-.34.18-.62.17-.29.45-.46.28-.17.63-.17h5.21v1.2H3.05q-.15 0-.23.08-.09.08-.09.23v3.46q0 .14.09.23.08.08.23.08h4.96z" paint-order="stroke"/>
    <rect width="6.47" height="6.48" x="-3.235" y="-3.24" fill="none" rx="0" ry="0" transform="translate(5.275 6.75)"/>
    <path d="M13.24 9.49H9.26q-.34 0-.63-.17-.28-.17-.45-.45-.17-.29-.17-.63v-.49h1.18v.44q0 .04.04.07.03.03.07.03h3.88q.05 0 .08-.03t.03-.07V6.95q0-.04-.03-.07-.03-.03-.08-.03H9.26q-.34 0-.63-.17-.28-.17-.45-.45-.17-.28-.17-.64V4.26q0-.34.17-.62.17-.29.45-.46.29-.17.63-.17h3.98q.34 0 .62.17.28.17.46.46.17.28.17.62v.5h-1.2v-.44q0-.05-.03-.08t-.08-.03H9.3q-.04 0-.07.03-.04.03-.04.08v1.23q0 .04.04.07.03.03.07.03h3.94q.34 0 .62.17.28.17.46.45.17.29.17.64v1.33q0 .34-.17.63-.18.28-.46.45-.28.17-.62.17" paint-order="stroke"/>
    <rect width="6.48" height="6.48" x="-3.24" y="-3.24" fill="none" rx="0" ry="0" transform="translate(11.75 6.75)"/>
</svg>
